<mxfile host="app.diagrams.net" modified="2024-06-13T14:57:10.742Z" agent="Mozilla/5.0 (X11; Linux x86_64; rv:109.0) Gecko/20100101 Firefox/115.0" etag="ib-9ocsgo-ARwynjWavc" version="24.5.4" type="device">
  <diagram name="Página-1" id="CBR-pMvpNvf4DPiNlyrw">
    <mxGraphModel dx="1748" dy="882" grid="1" gridSize="10" guides="1" tooltips="1" connect="1" arrows="0" fold="1" page="1" pageScale="1" pageWidth="827" pageHeight="1169" background="#FFF4C3" math="0" shadow="0">
      <root>
        <mxCell id="0" />
        <mxCell id="1" parent="0" />
        <mxCell id="G7Vavf_mVgCT9gI_r9t4-1" style="edgeStyle=orthogonalEdgeStyle;rounded=0;orthogonalLoop=1;jettySize=auto;html=1;exitX=0.5;exitY=1;exitDx=0;exitDy=0;entryX=0.5;entryY=0;entryDx=0;entryDy=0;dashed=1;" edge="1" parent="1" source="OzoSG0Pu-Z7uOkjksjxz-1" target="OzoSG0Pu-Z7uOkjksjxz-3">
          <mxGeometry relative="1" as="geometry" />
        </mxCell>
        <mxCell id="OzoSG0Pu-Z7uOkjksjxz-1" value="Mercancías : Objeto" style="rounded=0;whiteSpace=wrap;html=1;" parent="1" vertex="1">
          <mxGeometry x="40" y="60" width="120" height="40" as="geometry" />
        </mxCell>
        <mxCell id="G7Vavf_mVgCT9gI_r9t4-61" style="edgeStyle=orthogonalEdgeStyle;rounded=0;orthogonalLoop=1;jettySize=auto;html=1;exitX=0.5;exitY=1;exitDx=0;exitDy=0;dashed=1;" edge="1" parent="1" source="OzoSG0Pu-Z7uOkjksjxz-3" target="G7Vavf_mVgCT9gI_r9t4-60">
          <mxGeometry relative="1" as="geometry" />
        </mxCell>
        <mxCell id="OzoSG0Pu-Z7uOkjksjxz-3" value="" style="rounded=0;whiteSpace=wrap;html=1;" parent="1" vertex="1">
          <mxGeometry x="90" y="160" width="20" height="40" as="geometry" />
        </mxCell>
        <mxCell id="OzoSG0Pu-Z7uOkjksjxz-16" value="" style="shape=umlDestroy;whiteSpace=wrap;html=1;strokeWidth=3;targetShapes=umlLifeline;" parent="1" vertex="1">
          <mxGeometry x="730" y="720" width="20" height="20" as="geometry" />
        </mxCell>
        <mxCell id="G7Vavf_mVgCT9gI_r9t4-46" style="edgeStyle=orthogonalEdgeStyle;rounded=0;orthogonalLoop=1;jettySize=auto;html=1;exitX=0.5;exitY=1;exitDx=0;exitDy=0;dashed=1;" edge="1" parent="1" source="G7Vavf_mVgCT9gI_r9t4-2" target="G7Vavf_mVgCT9gI_r9t4-3">
          <mxGeometry relative="1" as="geometry" />
        </mxCell>
        <mxCell id="G7Vavf_mVgCT9gI_r9t4-2" value="Almacén : Lugar" style="rounded=0;whiteSpace=wrap;html=1;" vertex="1" parent="1">
          <mxGeometry x="200" y="60" width="120" height="40" as="geometry" />
        </mxCell>
        <mxCell id="G7Vavf_mVgCT9gI_r9t4-50" style="edgeStyle=orthogonalEdgeStyle;rounded=0;orthogonalLoop=1;jettySize=auto;html=1;exitX=0.5;exitY=1;exitDx=0;exitDy=0;dashed=1;" edge="1" parent="1" source="G7Vavf_mVgCT9gI_r9t4-3" target="G7Vavf_mVgCT9gI_r9t4-26">
          <mxGeometry relative="1" as="geometry" />
        </mxCell>
        <mxCell id="G7Vavf_mVgCT9gI_r9t4-3" value="" style="rounded=0;whiteSpace=wrap;html=1;" vertex="1" parent="1">
          <mxGeometry x="250" y="170" width="20" height="140" as="geometry" />
        </mxCell>
        <mxCell id="G7Vavf_mVgCT9gI_r9t4-47" style="edgeStyle=orthogonalEdgeStyle;rounded=0;orthogonalLoop=1;jettySize=auto;html=1;exitX=0.5;exitY=1;exitDx=0;exitDy=0;dashed=1;" edge="1" parent="1" source="G7Vavf_mVgCT9gI_r9t4-4" target="G7Vavf_mVgCT9gI_r9t4-7">
          <mxGeometry relative="1" as="geometry" />
        </mxCell>
        <mxCell id="G7Vavf_mVgCT9gI_r9t4-4" value="Artículos sobresalientes" style="rounded=0;whiteSpace=wrap;html=1;" vertex="1" parent="1">
          <mxGeometry x="360" y="60" width="120" height="40" as="geometry" />
        </mxCell>
        <mxCell id="G7Vavf_mVgCT9gI_r9t4-54" style="edgeStyle=orthogonalEdgeStyle;rounded=0;orthogonalLoop=1;jettySize=auto;html=1;exitX=0.5;exitY=1;exitDx=0;exitDy=0;dashed=1;" edge="1" parent="1" source="G7Vavf_mVgCT9gI_r9t4-7" target="G7Vavf_mVgCT9gI_r9t4-51">
          <mxGeometry relative="1" as="geometry" />
        </mxCell>
        <mxCell id="G7Vavf_mVgCT9gI_r9t4-7" value="" style="rounded=0;whiteSpace=wrap;html=1;" vertex="1" parent="1">
          <mxGeometry x="410" y="170" width="20" height="140" as="geometry" />
        </mxCell>
        <mxCell id="G7Vavf_mVgCT9gI_r9t4-8" style="edgeStyle=orthogonalEdgeStyle;rounded=0;orthogonalLoop=1;jettySize=auto;html=1;exitX=1;exitY=0.25;exitDx=0;exitDy=0;entryX=0;entryY=0.25;entryDx=0;entryDy=0;" edge="1" parent="1">
          <mxGeometry relative="1" as="geometry">
            <mxPoint x="110" y="179.32999999999998" as="sourcePoint" />
            <mxPoint x="250" y="179.32999999999998" as="targetPoint" />
          </mxGeometry>
        </mxCell>
        <mxCell id="G7Vavf_mVgCT9gI_r9t4-9" value="&lt;font style=&quot;font-size: 10px;&quot;&gt;Reabastecer( )&lt;/font&gt;" style="text;html=1;align=center;verticalAlign=middle;resizable=0;points=[];autosize=1;strokeColor=none;fillColor=none;" vertex="1" parent="1">
          <mxGeometry x="130" y="160" width="90" height="30" as="geometry" />
        </mxCell>
        <mxCell id="G7Vavf_mVgCT9gI_r9t4-11" style="edgeStyle=orthogonalEdgeStyle;rounded=0;orthogonalLoop=1;jettySize=auto;html=1;exitX=1;exitY=0.25;exitDx=0;exitDy=0;entryX=0;entryY=0.25;entryDx=0;entryDy=0;" edge="1" parent="1">
          <mxGeometry relative="1" as="geometry">
            <mxPoint x="270" y="200" as="sourcePoint" />
            <mxPoint x="410" y="200" as="targetPoint" />
          </mxGeometry>
        </mxCell>
        <mxCell id="G7Vavf_mVgCT9gI_r9t4-12" style="edgeStyle=orthogonalEdgeStyle;rounded=0;orthogonalLoop=1;jettySize=auto;html=1;exitX=1;exitY=0.25;exitDx=0;exitDy=0;entryX=0;entryY=0.25;entryDx=0;entryDy=0;dashed=1;dashPattern=8 8;startArrow=classic;startFill=1;endArrow=none;endFill=0;" edge="1" parent="1">
          <mxGeometry relative="1" as="geometry">
            <mxPoint x="270" y="240" as="sourcePoint" />
            <mxPoint x="410" y="240" as="targetPoint" />
          </mxGeometry>
        </mxCell>
        <mxCell id="G7Vavf_mVgCT9gI_r9t4-13" value="&lt;font style=&quot;font-size: 10px;&quot;&gt;Pedidos a surtir( )&lt;/font&gt;" style="text;html=1;align=center;verticalAlign=middle;resizable=0;points=[];autosize=1;strokeColor=none;fillColor=none;" vertex="1" parent="1">
          <mxGeometry x="280" y="178" width="100" height="30" as="geometry" />
        </mxCell>
        <mxCell id="G7Vavf_mVgCT9gI_r9t4-14" value="&lt;font style=&quot;font-size: 10px;&quot;&gt;Dato pedidos( )&lt;/font&gt;" style="text;html=1;align=center;verticalAlign=middle;resizable=0;points=[];autosize=1;strokeColor=none;fillColor=none;" vertex="1" parent="1">
          <mxGeometry x="285" y="218" width="90" height="30" as="geometry" />
        </mxCell>
        <mxCell id="G7Vavf_mVgCT9gI_r9t4-16" style="edgeStyle=orthogonalEdgeStyle;rounded=0;orthogonalLoop=1;jettySize=auto;html=1;exitX=1;exitY=0.25;exitDx=0;exitDy=0;entryX=0;entryY=0.25;entryDx=0;entryDy=0;" edge="1" parent="1">
          <mxGeometry relative="1" as="geometry">
            <mxPoint x="270" y="280" as="sourcePoint" />
            <mxPoint x="410" y="280" as="targetPoint" />
          </mxGeometry>
        </mxCell>
        <mxCell id="G7Vavf_mVgCT9gI_r9t4-18" value="&lt;font style=&quot;font-size: 10px;&quot;&gt;Completar pedidos( )&lt;/font&gt;" style="text;html=1;align=center;verticalAlign=middle;resizable=0;points=[];autosize=1;strokeColor=none;fillColor=none;" vertex="1" parent="1">
          <mxGeometry x="280" y="255" width="120" height="30" as="geometry" />
        </mxCell>
        <mxCell id="G7Vavf_mVgCT9gI_r9t4-48" style="edgeStyle=orthogonalEdgeStyle;rounded=0;orthogonalLoop=1;jettySize=auto;html=1;exitX=0.5;exitY=1;exitDx=0;exitDy=0;entryX=0.5;entryY=0;entryDx=0;entryDy=0;dashed=1;" edge="1" parent="1" source="G7Vavf_mVgCT9gI_r9t4-19" target="G7Vavf_mVgCT9gI_r9t4-21">
          <mxGeometry relative="1" as="geometry" />
        </mxCell>
        <mxCell id="G7Vavf_mVgCT9gI_r9t4-19" value="Cliente " style="rounded=0;whiteSpace=wrap;html=1;" vertex="1" parent="1">
          <mxGeometry x="520" y="60" width="120" height="40" as="geometry" />
        </mxCell>
        <mxCell id="G7Vavf_mVgCT9gI_r9t4-53" style="edgeStyle=orthogonalEdgeStyle;rounded=0;orthogonalLoop=1;jettySize=auto;html=1;exitX=0.5;exitY=1;exitDx=0;exitDy=0;dashed=1;" edge="1" parent="1" source="G7Vavf_mVgCT9gI_r9t4-20" target="G7Vavf_mVgCT9gI_r9t4-27">
          <mxGeometry relative="1" as="geometry" />
        </mxCell>
        <mxCell id="G7Vavf_mVgCT9gI_r9t4-20" value="Resto de pedidos" style="rounded=0;whiteSpace=wrap;html=1;" vertex="1" parent="1">
          <mxGeometry x="680" y="60" width="120" height="40" as="geometry" />
        </mxCell>
        <mxCell id="G7Vavf_mVgCT9gI_r9t4-49" style="edgeStyle=orthogonalEdgeStyle;rounded=0;orthogonalLoop=1;jettySize=auto;html=1;exitX=0.5;exitY=1;exitDx=0;exitDy=0;entryX=0.5;entryY=0;entryDx=0;entryDy=0;dashed=1;" edge="1" parent="1" source="G7Vavf_mVgCT9gI_r9t4-21" target="G7Vavf_mVgCT9gI_r9t4-41">
          <mxGeometry relative="1" as="geometry" />
        </mxCell>
        <mxCell id="G7Vavf_mVgCT9gI_r9t4-21" value="" style="rounded=0;whiteSpace=wrap;html=1;" vertex="1" parent="1">
          <mxGeometry x="570" y="280" width="20" height="40" as="geometry" />
        </mxCell>
        <mxCell id="G7Vavf_mVgCT9gI_r9t4-23" style="edgeStyle=orthogonalEdgeStyle;rounded=0;orthogonalLoop=1;jettySize=auto;html=1;exitX=1;exitY=0.25;exitDx=0;exitDy=0;entryX=0;entryY=0.25;entryDx=0;entryDy=0;" edge="1" parent="1">
          <mxGeometry relative="1" as="geometry">
            <mxPoint x="430" y="299.6" as="sourcePoint" />
            <mxPoint x="570" y="299.6" as="targetPoint" />
          </mxGeometry>
        </mxCell>
        <mxCell id="G7Vavf_mVgCT9gI_r9t4-24" value="&lt;font style=&quot;font-size: 10px;&quot;&gt;Enviar a cliente( )&lt;/font&gt;" style="text;html=1;align=center;verticalAlign=middle;resizable=0;points=[];autosize=1;strokeColor=none;fillColor=none;" vertex="1" parent="1">
          <mxGeometry x="450" y="280" width="100" height="30" as="geometry" />
        </mxCell>
        <mxCell id="G7Vavf_mVgCT9gI_r9t4-25" value="&lt;font style=&quot;font-size: 10px;&quot;&gt;if : mercancia suficiente&lt;/font&gt;" style="shape=umlFrame;whiteSpace=wrap;html=1;pointerEvents=0;width=120;height=20;" vertex="1" parent="1">
          <mxGeometry x="230" y="130" width="380" height="200" as="geometry" />
        </mxCell>
        <mxCell id="G7Vavf_mVgCT9gI_r9t4-52" style="edgeStyle=orthogonalEdgeStyle;rounded=0;orthogonalLoop=1;jettySize=auto;html=1;exitX=0.5;exitY=1;exitDx=0;exitDy=0;entryX=0.5;entryY=0;entryDx=0;entryDy=0;dashed=1;" edge="1" parent="1" source="G7Vavf_mVgCT9gI_r9t4-26" target="G7Vavf_mVgCT9gI_r9t4-40">
          <mxGeometry relative="1" as="geometry" />
        </mxCell>
        <mxCell id="G7Vavf_mVgCT9gI_r9t4-26" value="" style="rounded=0;whiteSpace=wrap;html=1;" vertex="1" parent="1">
          <mxGeometry x="250" y="390" width="20" height="100" as="geometry" />
        </mxCell>
        <mxCell id="G7Vavf_mVgCT9gI_r9t4-59" style="edgeStyle=orthogonalEdgeStyle;rounded=0;orthogonalLoop=1;jettySize=auto;html=1;exitX=0.5;exitY=1;exitDx=0;exitDy=0;dashed=1;" edge="1" parent="1" source="G7Vavf_mVgCT9gI_r9t4-27" target="OzoSG0Pu-Z7uOkjksjxz-16">
          <mxGeometry relative="1" as="geometry" />
        </mxCell>
        <mxCell id="G7Vavf_mVgCT9gI_r9t4-27" value="" style="rounded=0;whiteSpace=wrap;html=1;" vertex="1" parent="1">
          <mxGeometry x="730" y="380" width="20" height="180" as="geometry" />
        </mxCell>
        <mxCell id="G7Vavf_mVgCT9gI_r9t4-30" value="&lt;font style=&quot;font-size: 10px;&quot;&gt;Pedidos a surtir( )&lt;/font&gt;" style="text;html=1;align=center;verticalAlign=middle;resizable=0;points=[];autosize=1;strokeColor=none;fillColor=none;" vertex="1" parent="1">
          <mxGeometry x="445" y="380" width="100" height="30" as="geometry" />
        </mxCell>
        <mxCell id="G7Vavf_mVgCT9gI_r9t4-31" value="&lt;font style=&quot;font-size: 10px;&quot;&gt;Dato pedidos( )&lt;/font&gt;" style="text;html=1;align=center;verticalAlign=middle;resizable=0;points=[];autosize=1;strokeColor=none;fillColor=none;" vertex="1" parent="1">
          <mxGeometry x="445" y="415" width="90" height="30" as="geometry" />
        </mxCell>
        <mxCell id="G7Vavf_mVgCT9gI_r9t4-33" value="&lt;font style=&quot;font-size: 10px;&quot;&gt;Completar pedidos( )&lt;/font&gt;" style="text;html=1;align=center;verticalAlign=middle;resizable=0;points=[];autosize=1;strokeColor=none;fillColor=none;" vertex="1" parent="1">
          <mxGeometry x="430" y="460" width="120" height="30" as="geometry" />
        </mxCell>
        <mxCell id="G7Vavf_mVgCT9gI_r9t4-34" value="else&lt;font style=&quot;font-size: 10px;&quot;&gt;if : Sobra mercancia &lt;br&gt;&lt;/font&gt;" style="shape=umlFrame;whiteSpace=wrap;html=1;pointerEvents=0;width=120;height=20;" vertex="1" parent="1">
          <mxGeometry x="230" y="330" width="540" height="240" as="geometry" />
        </mxCell>
        <mxCell id="G7Vavf_mVgCT9gI_r9t4-35" style="edgeStyle=orthogonalEdgeStyle;rounded=0;orthogonalLoop=1;jettySize=auto;html=1;exitX=1;exitY=0.25;exitDx=0;exitDy=0;entryX=0;entryY=0.25;entryDx=0;entryDy=0;" edge="1" parent="1">
          <mxGeometry relative="1" as="geometry">
            <mxPoint x="270" y="480" as="sourcePoint" />
            <mxPoint x="730" y="480" as="targetPoint" />
          </mxGeometry>
        </mxCell>
        <mxCell id="G7Vavf_mVgCT9gI_r9t4-36" style="edgeStyle=orthogonalEdgeStyle;rounded=0;orthogonalLoop=1;jettySize=auto;html=1;exitX=1;exitY=0.25;exitDx=0;exitDy=0;entryX=0;entryY=0.25;entryDx=0;entryDy=0;" edge="1" parent="1">
          <mxGeometry relative="1" as="geometry">
            <mxPoint x="270" y="400" as="sourcePoint" />
            <mxPoint x="730" y="400" as="targetPoint" />
          </mxGeometry>
        </mxCell>
        <mxCell id="G7Vavf_mVgCT9gI_r9t4-37" style="edgeStyle=orthogonalEdgeStyle;rounded=0;orthogonalLoop=1;jettySize=auto;html=1;exitX=1;exitY=0.25;exitDx=0;exitDy=0;entryX=0;entryY=0.25;entryDx=0;entryDy=0;dashed=1;dashPattern=8 8;startArrow=classic;startFill=1;endArrow=none;endFill=0;" edge="1" parent="1">
          <mxGeometry relative="1" as="geometry">
            <mxPoint x="270" y="440" as="sourcePoint" />
            <mxPoint x="730" y="440" as="targetPoint" />
          </mxGeometry>
        </mxCell>
        <mxCell id="G7Vavf_mVgCT9gI_r9t4-39" value="else&lt;font style=&quot;font-size: 10px;&quot;&gt; : mercancia insuficiente&lt;/font&gt;" style="shape=umlFrame;whiteSpace=wrap;html=1;pointerEvents=0;width=160;height=20;" vertex="1" parent="1">
          <mxGeometry x="230" y="570" width="220" height="130" as="geometry" />
        </mxCell>
        <mxCell id="G7Vavf_mVgCT9gI_r9t4-56" style="edgeStyle=orthogonalEdgeStyle;rounded=0;orthogonalLoop=1;jettySize=auto;html=1;exitX=0.5;exitY=1;exitDx=0;exitDy=0;dashed=1;" edge="1" parent="1" source="G7Vavf_mVgCT9gI_r9t4-40" target="G7Vavf_mVgCT9gI_r9t4-55">
          <mxGeometry relative="1" as="geometry" />
        </mxCell>
        <mxCell id="G7Vavf_mVgCT9gI_r9t4-40" value="" style="rounded=0;whiteSpace=wrap;html=1;" vertex="1" parent="1">
          <mxGeometry x="250" y="610" width="20" height="70" as="geometry" />
        </mxCell>
        <mxCell id="G7Vavf_mVgCT9gI_r9t4-58" style="edgeStyle=orthogonalEdgeStyle;rounded=0;orthogonalLoop=1;jettySize=auto;html=1;exitX=0.5;exitY=1;exitDx=0;exitDy=0;dashed=1;" edge="1" parent="1" source="G7Vavf_mVgCT9gI_r9t4-41" target="G7Vavf_mVgCT9gI_r9t4-57">
          <mxGeometry relative="1" as="geometry" />
        </mxCell>
        <mxCell id="G7Vavf_mVgCT9gI_r9t4-41" value="" style="rounded=0;whiteSpace=wrap;html=1;" vertex="1" parent="1">
          <mxGeometry x="570" y="510" width="20" height="40" as="geometry" />
        </mxCell>
        <mxCell id="G7Vavf_mVgCT9gI_r9t4-42" style="edgeStyle=orthogonalEdgeStyle;rounded=0;orthogonalLoop=1;jettySize=auto;html=1;exitX=1;exitY=0.25;exitDx=0;exitDy=0;entryX=0;entryY=0.25;entryDx=0;entryDy=0;startArrow=classic;startFill=1;endArrow=none;endFill=0;" edge="1" parent="1">
          <mxGeometry relative="1" as="geometry">
            <mxPoint x="590" y="529.33" as="sourcePoint" />
            <mxPoint x="730" y="529.33" as="targetPoint" />
          </mxGeometry>
        </mxCell>
        <mxCell id="G7Vavf_mVgCT9gI_r9t4-43" value="&lt;font style=&quot;font-size: 10px;&quot;&gt;Enviar a cliente( )&lt;/font&gt;" style="text;html=1;align=center;verticalAlign=middle;resizable=0;points=[];autosize=1;strokeColor=none;fillColor=none;" vertex="1" parent="1">
          <mxGeometry x="610" y="510" width="100" height="30" as="geometry" />
        </mxCell>
        <mxCell id="G7Vavf_mVgCT9gI_r9t4-44" style="edgeStyle=orthogonalEdgeStyle;rounded=0;orthogonalLoop=1;jettySize=auto;html=1;exitX=1;exitY=0.25;exitDx=0;exitDy=0;entryX=1;entryY=0.75;entryDx=0;entryDy=0;" edge="1" parent="1" source="G7Vavf_mVgCT9gI_r9t4-40" target="G7Vavf_mVgCT9gI_r9t4-40">
          <mxGeometry relative="1" as="geometry">
            <Array as="points">
              <mxPoint x="290" y="628" />
              <mxPoint x="290" y="663" />
            </Array>
          </mxGeometry>
        </mxCell>
        <mxCell id="G7Vavf_mVgCT9gI_r9t4-45" value="&lt;div style=&quot;font-size: 11px;&quot;&gt;&lt;font style=&quot;font-size: 11px;&quot;&gt;Almacenar&amp;nbsp;&lt;/font&gt;&lt;/div&gt;&lt;div style=&quot;font-size: 11px;&quot;&gt;&lt;font style=&quot;font-size: 11px;&quot;&gt;mercancia&lt;/font&gt;( )&lt;/div&gt;" style="text;html=1;align=center;verticalAlign=middle;resizable=0;points=[];autosize=1;strokeColor=none;fillColor=none;" vertex="1" parent="1">
          <mxGeometry x="290" y="625" width="80" height="40" as="geometry" />
        </mxCell>
        <mxCell id="G7Vavf_mVgCT9gI_r9t4-51" value="" style="shape=umlDestroy;whiteSpace=wrap;html=1;strokeWidth=3;targetShapes=umlLifeline;" vertex="1" parent="1">
          <mxGeometry x="410" y="350" width="20" height="20" as="geometry" />
        </mxCell>
        <mxCell id="G7Vavf_mVgCT9gI_r9t4-55" value="" style="shape=umlDestroy;whiteSpace=wrap;html=1;strokeWidth=3;targetShapes=umlLifeline;" vertex="1" parent="1">
          <mxGeometry x="250" y="720" width="20" height="20" as="geometry" />
        </mxCell>
        <mxCell id="G7Vavf_mVgCT9gI_r9t4-57" value="" style="shape=umlDestroy;whiteSpace=wrap;html=1;strokeWidth=3;targetShapes=umlLifeline;" vertex="1" parent="1">
          <mxGeometry x="570" y="720" width="20" height="20" as="geometry" />
        </mxCell>
        <mxCell id="G7Vavf_mVgCT9gI_r9t4-60" value="" style="shape=umlDestroy;whiteSpace=wrap;html=1;strokeWidth=3;targetShapes=umlLifeline;" vertex="1" parent="1">
          <mxGeometry x="90" y="720" width="20" height="20" as="geometry" />
        </mxCell>
      </root>
    </mxGraphModel>
  </diagram>
</mxfile>
